<?xml version="1.0" encoding="utf-8"?>
<svg width="56px" height="56px" viewBox="0 0 56 56" version="1.1" xmlns:xlink="http://www.w3.org/1999/xlink" xmlns="http://www.w3.org/2000/svg">
  <defs>
    <path d="M0 0L24 0L24 24L0 24L0 0Z" id="path_1" />
    <clipPath id="mask_1">
      <use xlink:href="#path_1" />
    </clipPath>
  </defs>
  <g id="Group-2">
    <path d="M0 28C0 12.536 12.536 0 28 0C43.464 0 56 12.536 56 28C56 43.464 43.464 56 28 56C12.536 56 0 43.464 0 28Z" id="Oval" fill="#030D17" fill-rule="evenodd" stroke="none" />
    <g id="Whatsapp-Icon" transform="translate(17 16)">
      <path d="M0 0L24 0L24 24L0 24L0 0Z" id="Background" fill="#FFFFFF" fill-opacity="0" fill-rule="evenodd" stroke="none" />
      <g clip-path="url(#mask_1)">
        <path d="M11.3203 1.5C5.94141 1.5 1.57031 5.87109 1.57031 11.25C1.57031 13.1953 2.19727 14.9766 3.17578 16.5L1.5 21.1816L6.71484 19.7109C8.09766 20.4668 9.63281 21 11.3203 21C16.6992 21 21.0703 16.6289 21.0703 11.25C21.0703 5.87109 16.6992 1.5 11.3203 1.5L11.3203 1.5ZM11.3203 3C15.8848 3 19.5703 6.68555 19.5703 11.25C19.5703 15.8145 15.8848 19.5 11.3203 19.5C9.75586 19.5 8.30859 19.0605 7.05469 18.3047L6.7793 18.1348L3.89063 18.9434L4.82813 16.3418L4.59961 16.0254C3.63867 14.6719 3.07031 13.0313 3.07031 11.25C3.07031 6.68555 6.75586 3 11.3203 3L11.3203 3ZM7.66406 6C7.49414 6 7.21289 6.07031 6.97266 6.35156C6.73828 6.62695 6.07031 7.30078 6.07031 8.67188C6.07031 10.0371 6.99609 11.3613 7.125 11.5488C7.25391 11.7363 8.94727 14.543 11.5371 15.75C12.1523 16.0371 12.6328 16.207 13.0078 16.3359C13.6289 16.5469 14.1914 16.5176 14.6367 16.4473C15.1348 16.3652 16.166 15.7734 16.3828 15.123C16.5938 14.4727 16.5996 13.916 16.5293 13.7988C16.4707 13.6816 16.2949 13.6113 16.0371 13.4766C15.7793 13.3359 14.5078 12.6621 14.2734 12.5742C14.0391 12.4746 13.8633 12.4336 13.6875 12.709C13.5176 12.9902 13.0254 13.6172 12.873 13.7988C12.7207 13.9863 12.5742 14.0098 12.3164 13.8691C12.0527 13.7285 11.2207 13.4355 10.2363 12.4863C9.46875 11.748 8.94727 10.8398 8.80078 10.5586C8.64844 10.2773 8.7832 10.1309 8.91211 9.99609C9.0293 9.86719 9.16992 9.66797 9.29883 9.50391C9.42773 9.3457 9.46875 9.22266 9.55664 9.04102C9.64453 8.85352 9.60352 8.68945 9.53906 8.55469C9.46875 8.41406 8.95313 7.04297 8.74219 6.48633C8.53125 5.94727 8.31445 6.01758 8.15625 6.01172C8.00977 6 7.83398 6 7.66406 6L7.66406 6Z" id="Shape" fill="#E2FCFC" fill-rule="evenodd" stroke="none" />
      </g>
    </g>
  </g>
</svg>